<mxfile host="app.diagrams.net" modified="2022-02-09T09:11:56.225Z" agent="5.0 (Macintosh; Intel Mac OS X 10_15_7) AppleWebKit/537.36 (KHTML, like Gecko) Chrome/98.0.4758.80 Safari/537.36" etag="szhcWomIZEbGbap_PD1L" version="16.4.5" type="github">
  <diagram id="DMVpFU-Kz37UU-Gc86zp" name="Page-1">
    <mxGraphModel dx="1426" dy="771" grid="1" gridSize="10" guides="1" tooltips="1" connect="1" arrows="1" fold="1" page="1" pageScale="1" pageWidth="827" pageHeight="1169" math="0" shadow="0">
      <root>
        <mxCell id="0" />
        <mxCell id="1" parent="0" />
        <mxCell id="KGQP2Vg3BXuat6rJG0sD-1" value="1" style="rounded=0;whiteSpace=wrap;html=1;fillColor=#A0FF91;fontStyle=1" parent="1" vertex="1">
          <mxGeometry x="501" y="415" width="40" height="30" as="geometry" />
        </mxCell>
        <mxCell id="KGQP2Vg3BXuat6rJG0sD-2" value="2" style="rounded=0;whiteSpace=wrap;html=1;fillColor=#A0FF91;fontStyle=1" parent="1" vertex="1">
          <mxGeometry x="541" y="415" width="40" height="30" as="geometry" />
        </mxCell>
        <mxCell id="KGQP2Vg3BXuat6rJG0sD-3" value="3" style="rounded=0;whiteSpace=wrap;html=1;fillColor=#A0FF91;fontStyle=1" parent="1" vertex="1">
          <mxGeometry x="581" y="415" width="40" height="30" as="geometry" />
        </mxCell>
        <mxCell id="KGQP2Vg3BXuat6rJG0sD-4" value="4" style="rounded=0;whiteSpace=wrap;html=1;fillColor=#A0FF91;fontStyle=1" parent="1" vertex="1">
          <mxGeometry x="621" y="415" width="40" height="30" as="geometry" />
        </mxCell>
        <mxCell id="KGQP2Vg3BXuat6rJG0sD-5" value="5" style="rounded=0;whiteSpace=wrap;html=1;fillColor=#A0FF91;fontStyle=1" parent="1" vertex="1">
          <mxGeometry x="661" y="415" width="40" height="30" as="geometry" />
        </mxCell>
        <mxCell id="KGQP2Vg3BXuat6rJG0sD-6" value="6" style="rounded=0;whiteSpace=wrap;html=1;fillColor=#A0FF91;fontStyle=1" parent="1" vertex="1">
          <mxGeometry x="701" y="415" width="40" height="30" as="geometry" />
        </mxCell>
        <mxCell id="KGQP2Vg3BXuat6rJG0sD-7" value="7" style="rounded=0;whiteSpace=wrap;html=1;fillColor=#A0FF91;fontStyle=1" parent="1" vertex="1">
          <mxGeometry x="741" y="415" width="40" height="30" as="geometry" />
        </mxCell>
        <mxCell id="KGQP2Vg3BXuat6rJG0sD-8" value="8" style="rounded=0;whiteSpace=wrap;html=1;fillColor=#A0FF91;fontStyle=1" parent="1" vertex="1">
          <mxGeometry x="781" y="415" width="40" height="30" as="geometry" />
        </mxCell>
        <mxCell id="KGQP2Vg3BXuat6rJG0sD-10" value="" style="rounded=1;whiteSpace=wrap;html=1;fillColor=#FFFBF5;" parent="1" vertex="1">
          <mxGeometry x="891" y="325" width="350" height="220" as="geometry" />
        </mxCell>
        <mxCell id="KGQP2Vg3BXuat6rJG0sD-11" value="xstream:order-service:order-payed-topicÂ " style="text;strokeColor=none;fillColor=none;align=left;verticalAlign=middle;spacingLeft=4;spacingRight=4;overflow=hidden;points=[[0,0.5],[1,0.5]];portConstraint=eastwest;rotatable=0;fontStyle=1" parent="1" vertex="1">
          <mxGeometry x="621" y="445" width="250" height="30" as="geometry" />
        </mxCell>
        <mxCell id="KGQP2Vg3BXuat6rJG0sD-15" style="edgeStyle=orthogonalEdgeStyle;rounded=0;orthogonalLoop=1;jettySize=auto;html=1;" parent="1" source="KGQP2Vg3BXuat6rJG0sD-12" target="KGQP2Vg3BXuat6rJG0sD-1" edge="1">
          <mxGeometry relative="1" as="geometry" />
        </mxCell>
        <mxCell id="KGQP2Vg3BXuat6rJG0sD-12" value="user-service-01" style="rounded=0;whiteSpace=wrap;html=1;fillColor=#CCCCFF;" parent="1" vertex="1">
          <mxGeometry x="926" y="345" width="280" height="40" as="geometry" />
        </mxCell>
        <mxCell id="KGQP2Vg3BXuat6rJG0sD-16" style="edgeStyle=orthogonalEdgeStyle;rounded=0;orthogonalLoop=1;jettySize=auto;html=1;entryX=0.5;entryY=0;entryDx=0;entryDy=0;" parent="1" source="KGQP2Vg3BXuat6rJG0sD-13" target="KGQP2Vg3BXuat6rJG0sD-2" edge="1">
          <mxGeometry relative="1" as="geometry">
            <Array as="points">
              <mxPoint x="1066" y="395" />
              <mxPoint x="561" y="395" />
            </Array>
          </mxGeometry>
        </mxCell>
        <mxCell id="KGQP2Vg3BXuat6rJG0sD-13" value="user-service-02" style="rounded=0;whiteSpace=wrap;html=1;fillColor=#CCCCFF;" parent="1" vertex="1">
          <mxGeometry x="926" y="415" width="280" height="40" as="geometry" />
        </mxCell>
        <mxCell id="KGQP2Vg3BXuat6rJG0sD-17" style="edgeStyle=orthogonalEdgeStyle;rounded=0;orthogonalLoop=1;jettySize=auto;html=1;entryX=0.5;entryY=1;entryDx=0;entryDy=0;" parent="1" source="KGQP2Vg3BXuat6rJG0sD-14" target="KGQP2Vg3BXuat6rJG0sD-3" edge="1">
          <mxGeometry relative="1" as="geometry" />
        </mxCell>
        <mxCell id="KGQP2Vg3BXuat6rJG0sD-14" value="user-service-03" style="rounded=0;whiteSpace=wrap;html=1;fillColor=#CCCCFF;" parent="1" vertex="1">
          <mxGeometry x="926" y="485" width="280" height="40" as="geometry" />
        </mxCell>
        <mxCell id="KGQP2Vg3BXuat6rJG0sD-18" value="group:user-service-group" style="text;strokeColor=none;fillColor=none;align=left;verticalAlign=middle;spacingLeft=4;spacingRight=4;overflow=hidden;points=[[0,0.5],[1,0.5]];portConstraint=eastwest;rotatable=0;fontStyle=1" parent="1" vertex="1">
          <mxGeometry x="971" y="555" width="250" height="30" as="geometry" />
        </mxCell>
        <mxCell id="KGQP2Vg3BXuat6rJG0sD-19" value="" style="rounded=1;whiteSpace=wrap;html=1;fillColor=#FFE599;" parent="1" vertex="1">
          <mxGeometry x="50" y="385" width="350" height="220" as="geometry" />
        </mxCell>
        <mxCell id="KGQP2Vg3BXuat6rJG0sD-24" style="edgeStyle=orthogonalEdgeStyle;rounded=0;orthogonalLoop=1;jettySize=auto;html=1;strokeColor=#EA6B66;" parent="1" source="KGQP2Vg3BXuat6rJG0sD-20" target="KGQP2Vg3BXuat6rJG0sD-1" edge="1">
          <mxGeometry relative="1" as="geometry">
            <Array as="points">
              <mxPoint x="420" y="430" />
              <mxPoint x="420" y="430" />
            </Array>
          </mxGeometry>
        </mxCell>
        <mxCell id="KGQP2Vg3BXuat6rJG0sD-20" value="order-service-01" style="rounded=0;whiteSpace=wrap;html=1;fillColor=#CDA2BE;" parent="1" vertex="1">
          <mxGeometry x="85" y="405" width="280" height="40" as="geometry" />
        </mxCell>
        <mxCell id="KGQP2Vg3BXuat6rJG0sD-25" style="edgeStyle=orthogonalEdgeStyle;rounded=0;orthogonalLoop=1;jettySize=auto;html=1;entryX=0.5;entryY=1;entryDx=0;entryDy=0;strokeColor=#EA6B66;" parent="1" source="KGQP2Vg3BXuat6rJG0sD-21" target="KGQP2Vg3BXuat6rJG0sD-2" edge="1">
          <mxGeometry relative="1" as="geometry" />
        </mxCell>
        <mxCell id="KGQP2Vg3BXuat6rJG0sD-21" value="order-service-02" style="rounded=0;whiteSpace=wrap;html=1;fillColor=#CDA2BE;" parent="1" vertex="1">
          <mxGeometry x="85" y="475" width="280" height="40" as="geometry" />
        </mxCell>
        <mxCell id="KGQP2Vg3BXuat6rJG0sD-26" style="edgeStyle=orthogonalEdgeStyle;rounded=0;orthogonalLoop=1;jettySize=auto;html=1;entryX=0.25;entryY=1;entryDx=0;entryDy=0;fontColor=#FF1241;labelBorderColor=#FF1745;strokeColor=#EA6B66;" parent="1" source="KGQP2Vg3BXuat6rJG0sD-22" target="KGQP2Vg3BXuat6rJG0sD-3" edge="1">
          <mxGeometry relative="1" as="geometry" />
        </mxCell>
        <mxCell id="KGQP2Vg3BXuat6rJG0sD-22" value="order-service-03" style="rounded=0;whiteSpace=wrap;html=1;fillColor=#CDA2BE;" parent="1" vertex="1">
          <mxGeometry x="85" y="545" width="280" height="40" as="geometry" />
        </mxCell>
        <mxCell id="KGQP2Vg3BXuat6rJG0sD-23" value="group:order-service-group" style="text;strokeColor=none;fillColor=none;align=left;verticalAlign=middle;spacingLeft=4;spacingRight=4;overflow=hidden;points=[[0,0.5],[1,0.5]];portConstraint=eastwest;rotatable=0;fontStyle=1" parent="1" vertex="1">
          <mxGeometry x="130" y="615" width="250" height="30" as="geometry" />
        </mxCell>
      </root>
    </mxGraphModel>
  </diagram>
</mxfile>
